<?xml version="1.0" encoding="UTF-8"?>
<!DOCTYPE svg PUBLIC "-//W3C//DTD SVG 1.1//EN" "http://www.w3.org/Graphics/SVG/1.1/DTD/svg11.dtd">
<!-- Creator: CorelDRAW X7 -->
<svg xmlns="http://www.w3.org/2000/svg" xml:space="preserve" width="150mm" height="150mm" version="1.1" style="shape-rendering:geometricPrecision; text-rendering:geometricPrecision; image-rendering:optimizeQuality; fill-rule:evenodd; clip-rule:evenodd"
viewBox="0 0 15000 15000"
 xmlns:xlink="http://www.w3.org/1999/xlink">
 <defs>
  <style type="text/css">
   <![CDATA[
    .fil1 {fill:none}
    .fil2 {fill:#FEFEFE}
    .fil0 {fill:#256BB1}
    .fil3 {fill:#C32328;fill-rule:nonzero}
   ]]>
  </style>
 </defs>
 <g id="Layer_x0020_1">
  <metadata id="CorelCorpID_0Corel-Layer"/>
  <rect class="fil0" x="1290" y="1290" width="12421" height="12421" rx="1402" ry="1402"/>
  <polygon class="fil1" points="0,0 15000,0 15000,15000 0,15000 "/>
  <path class="fil2" d="M7500 1942c3070,0 5559,2488 5559,5558 0,3070 -2489,5559 -5559,5559 -3070,0 -5558,-2489 -5558,-5559 0,-3070 2488,-5558 5558,-5558z"/>
  <polygon class="fil3" points="5306,6127 6005,6127 6005,8866 5306,8866 5306,8496 4055,8496 4757,7826 5306,7826 5306,7100 3364,8929 3364,7963 "/>
  <polygon class="fil3" points="6770,6848 6196,6848 6196,6131 8703,6131 7949,6848 7523,6848 7523,8869 6770,8869 "/>
  <path class="fil3" d="M8878 6790l1400 0 694 -659 -2094 0 -695 659 0 2079 1594 0c100,-1 194,-25 281,-71 88,-47 165,-110 231,-191 67,-80 119,-171 157,-273 37,-103 57,-211 57,-323 0,-127 -19,-243 -57,-346 -37,-103 -89,-191 -155,-264 -67,-74 -144,-131 -233,-170 -88,-40 -182,-60 -285,-60l-744 0 0 658 607 0c55,1 97,19 127,53 30,34 46,79 46,136 0,37 -7,70 -21,99 -13,29 -33,51 -59,68 -26,17 -57,25 -93,25l-758 0 0 -1420z"/>
  <path class="fil0" d="M11102 4153l-504 1419c-1008,-1431 -2885,-1024 -5214,344 1612,-1637 3479,-2365 5718,-1763z"/>
  <path class="fil0" d="M3898 10847l504 -1419c1008,1431 2885,1024 5214,-344 -1612,1637 -3479,2365 -5718,1763z"/>
  <path class="fil0" d="M10696 3734c-3574,-3372 -9861,617 -7759,5609 132,-3725 4861,-6340 7759,-5609z"/>
  <path class="fil0" d="M4304 11266c3574,3372 9861,-617 7759,-5609 -132,3725 -4861,6340 -7759,5609z"/>
  <path class="fil0" d="M2575 905l9850 0c919,0 1670,751 1670,1670l0 9850c0,919 -751,1670 -1670,1670l-9850 0c-919,0 -1670,-751 -1670,-1670l0 -9850c0,-919 751,-1670 1670,-1670zm-46 -153l9942 0c977,0 1777,800 1777,1777l0 9942c0,977 -800,1777 -1777,1777l-9942 0c-977,0 -1777,-800 -1777,-1777l0 -9942c0,-977 800,-1777 1777,-1777z"/>
 </g>
</svg>
